<svg viewBox="0 0 40 400" xmlns="http://www.w3.org/2000/svg">
	<path d="m0 0h39.999998v400h-39.999998z" fill="#fff"/>
	<path d="m-.0000341 2.9288961 7.071068 7.0710678-7.071068 7.0710681-7.0710678-7.0710681z"/>
	<path d="m-.0000341 102.92889 7.071068 7.07107-7.071068 7.07107-7.0710678-7.07107z"/>
	<path d="m-.0000341 122.92889 7.071068 7.07107-7.071068 7.07107-7.0710678-7.07107z"/>
	<path d="m-.0000341 142.92889 7.071068 7.07107-7.071068 7.07107-7.0710678-7.07107z"/>
	<path d="m-.0000341 162.92889 7.071068 7.07107-7.071068 7.07107-7.0710678-7.07107z"/>
	<path d="m-.0000341 182.92889 7.071068 7.07107-7.071068 7.07107-7.0710678-7.07107z"/>
	<path d="m-.0000341 202.92889 7.071068 7.07107-7.071068 7.07107-7.0710678-7.07107z"/>
	<path d="m-.0000341 222.92889 7.071068 7.07107-7.071068 7.07107-7.0710678-7.07107z"/>
	<path d="m-.0000341 242.92889 7.071068 7.07107-7.071068 7.07107-7.0710678-7.07107z"/>
	<path d="m-.0000341 262.92889 7.071068 7.07107-7.071068 7.07107-7.0710678-7.07107z"/>
	<path d="m-.0000341 282.92889 7.071068 7.07107-7.071068 7.07107-7.0710678-7.07107z"/>
	<path d="m-.0000341 22.928896 7.071068 7.071068-7.071068 7.071068-7.0710678-7.071068z"/>
	<path d="m-.0000341 302.92889 7.071068 7.07107-7.071068 7.07107-7.0710678-7.07107z"/>
	<path d="m-.0000341 322.92889 7.071068 7.07107-7.071068 7.07107-7.0710678-7.07107z"/>
	<path d="m-.0000341 342.92889 7.071068 7.07107-7.071068 7.07107-7.0710678-7.07107z"/>
	<path d="m-.0000341 362.92889 7.071068 7.07107-7.071068 7.07107-7.0710678-7.07107z"/>
	<path d="m-.0000341 382.92889 7.071068 7.07107-7.071068 7.07107-7.0710678-7.07107z"/>
	<path d="m-.0000341 42.928896 7.071068 7.071068-7.071068 7.071068-7.0710678-7.071068z"/>
	<path d="m-.0000341 62.928896 7.071068 7.071068-7.071068 7.071068-7.0710678-7.071068z"/>
	<path d="m-.0000341 82.928896 7.071068 7.071068-7.071068 7.07107-7.0710678-7.07107z"/>
	<path d="m40.000034 2.9289639 7.071068 7.0710701-7.071068 7.07107-7.071068-7.07107z"/>
	<path d="m40.000034 102.92896 7.071068 7.07107-7.071068 7.07107-7.071068-7.07107z"/>
	<path d="m40.000034 122.92896 7.071068 7.07107-7.071068 7.07107-7.071068-7.07107z"/>
	<path d="m40.000034 142.92896 7.071068 7.07107-7.071068 7.07107-7.071068-7.07107z"/>
	<path d="m40.000034 162.92896 7.071068 7.07107-7.071068 7.07107-7.071068-7.07107z"/>
	<path d="m40.000034 182.92896 7.071068 7.07107-7.071068 7.07107-7.071068-7.07107z"/>
	<path d="m40.000034 202.92896 7.071068 7.07107-7.071068 7.07107-7.071068-7.07107z"/>
	<path d="m40.000034 222.92896 7.071068 7.07107-7.071068 7.07107-7.071068-7.07107z"/>
	<path d="m40.000034 242.92896 7.071068 7.07107-7.071068 7.07107-7.071068-7.07107z"/>
	<path d="m40.000034 262.92896 7.071068 7.07107-7.071068 7.07107-7.071068-7.07107z"/>
	<path d="m40.000034 282.92896 7.071068 7.07107-7.071068 7.07107-7.071068-7.07107z"/>
	<path d="m40.000034 22.928964 7.071068 7.07107-7.071068 7.07107-7.071068-7.07107z"/>
	<path d="m40.000034 302.92896 7.071068 7.07107-7.071068 7.07107-7.071068-7.07107z"/>
	<path d="m40.000034 322.92896 7.071068 7.07107-7.071068 7.07107-7.071068-7.07107z"/>
	<path d="m40.000034 342.92896 7.071068 7.07107-7.071068 7.07107-7.071068-7.07107z"/>
	<path d="m40.000034 362.92896 7.071068 7.07107-7.071068 7.07107-7.071068-7.07107z"/>
	<path d="m40.000034 382.92896 7.071068 7.07107-7.071068 7.07107-7.071068-7.07107z"/>
	<path d="m40.000034 42.928964 7.071068 7.071073-7.071068 7.07107-7.071068-7.07107z"/>
	<path d="m40.000034 62.928967 7.071068 7.07107-7.071068 7.071068-7.071068-7.071068z"/>
	<path d="m40.000034 82.928969 7.071068 7.071068-7.071068 7.071067-7.071068-7.071067z"/>
	<path d="m9.9999659-7.0711039 7.0710681 7.0710678-7.0710681 7.071068-7.0710678-7.071068z"/>
	<path d="m9.9999659 92.928896 7.0710681 7.071068-7.0710681 7.071066-7.0710678-7.071066z"/>
	<path d="m9.9999659 112.92889 7.0710681 7.07107-7.0710681 7.07107-7.0710678-7.07107z"/>
	<path d="m9.9999659 132.92889 7.0710681 7.07107-7.0710681 7.07107-7.0710678-7.07107z"/>
	<path d="m9.9999659 152.92889 7.0710681 7.07107-7.0710681 7.07107-7.0710678-7.07107z"/>
	<path d="m9.9999659 172.92889 7.0710681 7.07107-7.0710681 7.07107-7.0710678-7.07107z"/>
	<path d="m9.9999659 192.92889 7.0710681 7.07107-7.0710681 7.07107-7.0710678-7.07107z"/>
	<path d="m9.9999659 12.928896 7.0710681 7.071068-7.0710681 7.071068-7.0710678-7.071068z"/>
	<path d="m9.9999659 212.92889 7.0710681 7.07107-7.0710681 7.07107-7.0710678-7.07107z"/>
	<path d="m9.9999659 232.92889 7.0710681 7.07107-7.0710681 7.07107-7.0710678-7.07107z"/>
	<path d="m9.9999659 252.92889 7.0710681 7.07107-7.0710681 7.07107-7.0710678-7.07107z"/>
	<path d="m9.9999659 272.92889 7.0710681 7.07107-7.0710681 7.07107-7.0710678-7.07107z"/>
	<path d="m9.9999659 292.92889 7.0710681 7.07107-7.0710681 7.07107-7.0710678-7.07107z"/>
	<path d="m9.9999659 312.92889 7.0710681 7.07107-7.0710681 7.07107-7.0710678-7.07107z"/>
	<path d="m9.9999659 332.92889 7.0710681 7.07107-7.0710681 7.07107-7.0710678-7.07107z"/>
	<path d="m9.9999659 352.92889 7.0710681 7.07107-7.0710681 7.07107-7.0710678-7.07107z"/>
	<path d="m9.9999659 372.92889 7.0710681 7.07107-7.0710681 7.07107-7.0710678-7.07107z"/>
	<path d="m9.9999659 32.928896 7.0710681 7.071068-7.0710681 7.071068-7.0710678-7.071068z"/>
	<path d="m9.9999659 52.928896 7.0710681 7.071068-7.0710681 7.071068-7.0710678-7.071068z"/>
	<path d="m9.9999659 72.928896 7.0710681 7.071068-7.0710681 7.071068-7.0710678-7.071068z"/>
	<path d="m19.999966 2.9288961 7.071068 7.0710678-7.071068 7.0710681-7.071068-7.0710681z"/>
	<path d="m19.999966 102.92889 7.071068 7.07107-7.071068 7.07107-7.071068-7.07107z"/>
	<path d="m19.999966 122.92889 7.071068 7.07107-7.071068 7.07107-7.071068-7.07107z"/>
	<path d="m19.999966 142.92889 7.071068 7.07107-7.071068 7.07107-7.071068-7.07107z"/>
	<path d="m19.999966 162.92889 7.071068 7.07107-7.071068 7.07107-7.071068-7.07107z"/>
	<path d="m19.999966 182.92889 7.071068 7.07107-7.071068 7.07107-7.071068-7.07107z"/>
	<path d="m19.999966 202.92889 7.071068 7.07107-7.071068 7.07107-7.071068-7.07107z"/>
	<path d="m19.999966 222.92889 7.071068 7.07107-7.071068 7.07107-7.071068-7.07107z"/>
	<path d="m19.999966 242.92889 7.071068 7.07107-7.071068 7.07107-7.071068-7.07107z"/>
	<path d="m19.999966 262.92889 7.071068 7.07107-7.071068 7.07107-7.071068-7.07107z"/>
	<path d="m19.999966 282.92889 7.071068 7.07107-7.071068 7.07107-7.071068-7.07107z"/>
	<path d="m19.999966 22.928896 7.071068 7.071068-7.071068 7.071068-7.071068-7.071068z"/>
	<path d="m19.999966 302.92889 7.071068 7.07107-7.071068 7.07107-7.071068-7.07107z"/>
	<path d="m19.999966 322.92889 7.071068 7.07107-7.071068 7.07107-7.071068-7.07107z"/>
	<path d="m19.999966 342.92889 7.071068 7.07107-7.071068 7.07107-7.071068-7.07107z"/>
	<path d="m19.999966 362.92889 7.071068 7.07107-7.071068 7.07107-7.071068-7.07107z"/>
	<path d="m19.999966 382.92889 7.071068 7.07107-7.071068 7.07107-7.071068-7.07107z"/>
	<path d="m19.999966 42.928896 7.071068 7.071068-7.071068 7.071068-7.071068-7.071068z"/>
	<path d="m19.999966 62.928896 7.071068 7.071068-7.071068 7.071068-7.071068-7.071068z"/>
	<path d="m19.999966 82.928896 7.071068 7.071068-7.071068 7.07107-7.071068-7.07107z"/>
	<path d="m29.999966-7.0711039 7.071068 7.0710678-7.071068 7.071068-7.071068-7.071068z"/>
	<path d="m10.000068 392.92896 7.071068 7.07107-7.071068 7.07107-7.071068-7.07107z"/>
	<path d="m30.000068 392.92896 7.071068 7.07107-7.071068 7.07107-7.071068-7.07107z"/>
	<path d="m29.999966 92.928896 7.071068 7.071068-7.071068 7.071066-7.071068-7.071066z"/>
	<path d="m29.999966 112.92889 7.071068 7.07107-7.071068 7.07107-7.071068-7.07107z"/>
	<path d="m29.999966 132.92889 7.071068 7.07107-7.071068 7.07107-7.071068-7.07107z"/>
	<path d="m29.999966 152.92889 7.071068 7.07107-7.071068 7.07107-7.071068-7.07107z"/>
	<path d="m29.999966 172.92889 7.071068 7.07107-7.071068 7.07107-7.071068-7.07107z"/>
	<path d="m37.071035 199.99996-7.071069 7.07107-7.071069-7.07107 7.071069-7.07107z"/>
	<path d="m29.999966 12.928896 7.071068 7.071068-7.071068 7.071068-7.071068-7.071068z"/>
	<path d="m29.999966 212.92889 7.071068 7.07107-7.071068 7.07107-7.071068-7.07107z"/>
	<path d="m29.999966 232.92889 7.071068 7.07107-7.071068 7.07107-7.071068-7.07107z"/>
	<path d="m29.999966 252.92889 7.071068 7.07107-7.071068 7.07107-7.071068-7.07107z"/>
	<path d="m29.999966 272.92889 7.071068 7.07107-7.071068 7.07107-7.071068-7.07107z"/>
	<path d="m29.999966 292.92889 7.071068 7.07107-7.071068 7.07107-7.071068-7.07107z"/>
	<path d="m29.999966 312.92889 7.071068 7.07107-7.071068 7.07107-7.071068-7.07107z"/>
	<path d="m29.999966 332.92889 7.071068 7.07107-7.071068 7.07107-7.071068-7.07107z"/>
	<path d="m29.999966 352.92889 7.071068 7.07107-7.071068 7.07107-7.071068-7.07107z"/>
	<path d="m29.999966 372.92889 7.071068 7.07107-7.071068 7.07107-7.071068-7.07107z"/>
	<path d="m29.999966 32.928896 7.071068 7.071068-7.071068 7.071068-7.071068-7.071068z"/>
	<path d="m29.999966 52.928896 7.071068 7.071068-7.071068 7.071068-7.071068-7.071068z"/>
	<path d="m29.999966 72.928896 7.071068 7.071068-7.071068 7.071068-7.071068-7.071068z"/>
</svg>