<svg viewBox="0 0 50 50" xmlns="http://www.w3.org/2000/svg">
	<path d="m0 0h50v50h-50z" fill="#fff" stroke-width=".395285"/>
	<path d="m4.9999659 7.928932 7.0710681 7.071068-7.0710681 7.071068-7.0710678-7.071068z"/>
	<path d="m4.9999659 27.928932 7.0710681 7.071068-7.0710681 7.071068-7.0710678-7.071068z"/>
	<path d="m45.000034 7.9289998 7.071068 7.0710702-7.071068 7.07107-7.071068-7.07107z"/>
	<path d="m45.000034 27.929 7.071068 7.07107-7.071068 7.07107-7.071068-7.07107z"/>
	<path d="m14.999966-2.071068 7.071068 7.0710678-7.071068 7.0710682-7.0710679-7.0710682z"/>
	<path d="m14.999966 17.928932 7.071068 7.071068-7.071068 7.071068-7.0710679-7.071068z"/>
	<path d="m14.999966 37.928932 7.071068 7.071068-7.071068 7.071068-7.0710679-7.071068z"/>
	<path d="m24.999966 7.928932 7.071068 7.071068-7.071068 7.071068-7.071068-7.071068z"/>
	<path d="m24.999966 27.928932 7.071068 7.071068-7.071068 7.071068-7.071068-7.071068z"/>
	<path d="m34.999966-2.071068 7.071068 7.0710678-7.071068 7.0710682-7.071068-7.0710682z"/>
	<path d="m34.999966 17.928932 7.071068 7.071068-7.071068 7.071068-7.071068-7.071068z"/>
	<path d="m34.999966 37.928932 7.071068 7.071068-7.071068 7.071068-7.071068-7.071068z"/>
</svg>